<svg width="32" height="32" viewBox="0 0 32 32" fill="none" xmlns="http://www.w3.org/2000/svg">
  <rect width="32" height="32" rx="8" fill="url(#gradient)"/>
  <path d="M8 12C8 10.8954 8.89543 10 10 10H14C16.2091 10 18 11.7909 18 14C18 16.2091 16.2091 18 14 18H12V20H22C23.1046 20 24 20.8954 24 22C24 23.1046 23.1046 24 22 24H10C8.89543 24 8 23.1046 8 22V12Z" fill="white"/>
  <path d="M12 14H14C15.1046 14 16 13.1046 16 12C16 10.8954 15.1046 10 14 10H12V14Z" fill="white" fill-opacity="0.8"/>
  <defs>
    <linearGradient id="gradient" x1="0" y1="0" x2="32" y2="32" gradientUnits="userSpaceOnUse">
      <stop stop-color="#3B82F6"/>
      <stop offset="1" stop-color="#8B5CF6"/>
    </linearGradient>
  </defs>
</svg>